<?xml version="1.0" encoding="UTF-8"?>
<svg xmlns="http://www.w3.org/2000/svg" xmlns:xlink="http://www.w3.org/1999/xlink" width="539px" height="410px" viewBox="0 0 539 410" version="1.1">
<g id="surface1">
<path style=" stroke:none;fill-rule:nonzero;fill:rgb(0%,0%,0%);fill-opacity:1;" d="M 96.761719 235 L 87 235 L 87 290 L 96.761719 290 C 110.882812 290 114 282.863281 114 270.894531 L 114 254.105469 C 114 242.34375 110.882812 235 96.761719 235 Z M 96.761719 235 "/>
<path style=" stroke:none;fill-rule:nonzero;fill:rgb(0%,0%,0%);fill-opacity:1;" d="M 96.761719 168 L 87 168 L 87 221 L 96.761719 221 C 110.882812 221 114 214.0625 114 202.074219 L 114 186.925781 C 114 175.152344 110.882812 168 96.761719 168 Z M 96.761719 168 "/>
<path style=" stroke:none;fill-rule:nonzero;fill:rgb(0%,0%,0%);fill-opacity:1;" d="M 294.402344 198.785156 C 294.402344 201.722656 292.726562 203.402344 289.789062 203.402344 L 281.386719 203.402344 C 278.453125 203.402344 276.773438 201.722656 276.773438 198.785156 L 276.773438 182.609375 C 276.773438 172.527344 274.039062 166.429688 262.070312 166.429688 C 250.097656 166.429688 247.367188 172.519531 247.367188 182.609375 L 247.367188 275.054688 C 247.367188 285.136719 250.097656 291.226562 262.070312 291.226562 C 274.039062 291.226562 276.773438 285.136719 276.773438 275.054688 L 276.773438 242.277344 L 265.4375 242.277344 C 262.5 242.277344 261.027344 240.804688 261.027344 237.863281 L 261.027344 232.195312 C 261.027344 229.257812 262.5 227.578125 265.4375 227.578125 L 289.800781 227.578125 C 292.734375 227.578125 294.414062 229.257812 294.414062 232.195312 L 294.414062 275.054688 C 294.414062 295.011719 287.273438 305.933594 262.070312 305.933594 C 236.867188 305.933594 229.726562 295.011719 229.726562 275.054688 L 229.726562 182.609375 C 229.726562 162.648438 236.867188 151.726562 262.070312 151.726562 C 287.273438 151.726562 294.414062 162.648438 294.414062 182.609375 L 294.414062 198.785156 Z M 212.925781 275.054688 C 212.925781 295.011719 205.78125 305.933594 180.578125 305.933594 C 155.378906 305.933594 148.234375 295.011719 148.234375 275.054688 L 148.234375 157.183594 C 148.234375 154.246094 149.914062 152.773438 152.851562 152.773438 L 161.253906 152.773438 C 164.1875 152.773438 165.867188 154.246094 165.867188 157.183594 L 165.867188 275.054688 C 165.867188 285.136719 168.597656 291.226562 180.570312 291.226562 C 192.542969 291.226562 195.273438 285.136719 195.273438 275.054688 L 195.273438 157.183594 C 195.273438 154.246094 196.953125 152.773438 199.890625 152.773438 L 208.289062 152.773438 C 211.238281 152.773438 212.914062 154.246094 212.914062 157.183594 L 212.914062 275.054688 Z M 131.855469 195.632812 C 131.855469 212.234375 127.648438 223.15625 113.375 227.351562 L 113.375 228.40625 C 127.660156 232.820312 131.855469 243.742188 131.855469 260.128906 L 131.855469 271.050781 C 131.855469 292.90625 124.292969 304.871094 96.777344 304.871094 L 73.890625 304.871094 C 70.953125 304.871094 69.273438 303.191406 69.273438 300.253906 L 69.273438 157.183594 C 69.273438 154.246094 70.953125 152.773438 73.890625 152.773438 L 96.777344 152.773438 C 124.292969 152.773438 131.855469 164.75 131.855469 186.386719 Z M 298.113281 62.742188 C 285.777344 23.570312 267.542969 6.941406 236.964844 1.042969 C 206.398438 -4.859375 180.113281 14.992188 140.421875 42.359375 C 100.738281 69.71875 39.59375 147.519531 39.59375 147.519531 C 39.59375 147.519531 25.652344 166.835938 21.894531 174.890625 C 18.136719 182.933594 -3.316406 208.152344 0.4375 268.25 C 4.195312 328.34375 82.503906 371.800781 125.941406 392.1875 C 169.390625 412.578125 205.859375 414.1875 243.941406 403.453125 C 282.023438 392.726562 301.300781 359.148438 313.128906 281.660156 C 323.753906 212.039062 310.445312 101.910156 298.113281 62.742188 Z M 298.113281 62.742188 "/>
<path style=" stroke:none;fill-rule:nonzero;fill:rgb(0%,0%,0%);fill-opacity:1;" d="M 355.011719 212.21875 L 377.035156 235.085938 C 386.5625 244.53125 391 253.128906 391 275.160156 C 391 295.09375 383.800781 306 358.398438 306 C 332.992188 306 326 295.09375 326 275.160156 L 326 255.226562 C 326 252.292969 327.484375 250.613281 330.445312 250.613281 L 339.128906 250.613281 C 342.089844 250.613281 343.574219 252.292969 343.574219 255.226562 L 343.574219 275.160156 C 343.574219 285.226562 346.328125 291.3125 358.398438 291.3125 C 370.464844 291.3125 373.425781 285.226562 373.425781 275.160156 C 373.425781 261.726562 371.734375 256.0625 361.996094 245.78125 L 339.976562 222.914062 C 330.445312 213.683594 326 204.871094 326 182.839844 C 326 162.90625 332.984375 152 358.398438 152 C 383.800781 152 391 162.90625 391 182.839844 L 391 202.773438 C 391 205.707031 389.523438 207.179688 386.554688 207.179688 L 377.871094 207.179688 C 374.910156 207.179688 373.425781 205.707031 373.425781 202.773438 L 373.425781 182.839844 C 373.425781 172.773438 370.464844 166.6875 358.398438 166.6875 C 346.328125 166.6875 343.574219 172.773438 343.574219 182.839844 C 343.585938 196.488281 345.277344 202.152344 355.011719 212.21875 Z M 355.011719 212.21875 "/>
<path style=" stroke:none;fill-rule:nonzero;fill:rgb(0%,0%,0%);fill-opacity:1;" d="M 459.359375 153 C 462.3125 153 464 154.472656 464 157.410156 L 464 163.074219 C 464 166.011719 462.3125 167.699219 459.359375 167.699219 L 424.734375 167.699219 L 424.734375 221.65625 L 451.335938 221.65625 C 454.289062 221.65625 455.976562 223.128906 455.976562 226.0625 L 455.976562 231.730469 C 455.976562 234.667969 454.289062 236.34375 451.335938 236.34375 L 424.734375 236.34375 L 424.734375 290.300781 L 459.359375 290.300781 C 462.3125 290.300781 464 291.773438 464 294.710938 L 464 300.378906 C 464 303.3125 462.3125 305 459.359375 305 L 411.640625 305 C 408.6875 305 407 303.320312 407 300.378906 L 407 157.410156 C 407 154.472656 408.6875 153 411.640625 153 Z M 459.359375 153 "/>
<path style=" stroke:none;fill-rule:nonzero;fill:rgb(0%,0%,0%);fill-opacity:1;" d="M 539 207.386719 C 539 210.320312 537.3125 211.996094 534.351562 211.996094 L 525.910156 211.996094 C 522.960938 211.996094 521.273438 210.320312 521.273438 207.386719 L 521.273438 182.839844 C 521.273438 172.773438 518.527344 166.679688 506.5 166.679688 C 494.472656 166.679688 491.726562 172.761719 491.726562 182.839844 L 491.726562 275.160156 C 491.726562 285.226562 494.472656 291.3125 506.5 291.3125 C 518.527344 291.3125 521.273438 285.226562 521.273438 275.160156 L 521.273438 250.402344 C 521.273438 247.46875 522.960938 245.996094 525.910156 245.996094 L 534.351562 245.996094 C 537.304688 245.996094 539 247.457031 539 250.402344 L 539 275.160156 C 539 295.09375 531.824219 306 506.5 306 C 481.175781 306 474 295.09375 474 275.160156 L 474 182.839844 C 474 162.90625 481.175781 152 506.5 152 C 531.824219 152 539 162.90625 539 182.839844 Z M 539 207.386719 "/>
</g>
</svg>
