<svg xmlns="http://www.w3.org/2000/svg" width="539" height="410" viewBox="0 0 539 410" fill="none">
	<path d="M96.7621 235H87V290H96.7621C110.884 290 114 282.862 114 270.896V254.104C114 242.343 110.884 235 96.7621 235Z" fill="black">
	</path>
	<path d="M96.7621 168H87V221H96.7621C110.884 221 114 214.062 114 202.073V186.927C114 175.153 110.884 168 96.7621 168Z" fill="black">
	</path>
	<path d="M294.404 198.784C294.404 201.722 292.726 203.401 289.789 203.401H281.388C278.452 203.401 276.773 201.722 276.773 198.784V182.611C276.773 172.528 274.041 166.428 262.07 166.428C250.098 166.428 247.366 172.518 247.366 182.611V275.053C247.366 285.135 250.098 291.226 262.07 291.226C274.041 291.226 276.773 285.135 276.773 275.053V242.277H265.436C262.499 242.277 261.026 240.803 261.026 237.865V232.194C261.026 229.256 262.499 227.577 265.436 227.577H289.799C292.736 227.577 294.414 229.256 294.414 232.194V275.053C294.414 295.013 287.272 305.935 262.07 305.935C236.868 305.935 229.726 295.013 229.726 275.053V182.611C229.726 162.65 236.868 151.728 262.07 151.728C287.272 151.728 294.414 162.65 294.414 182.611V198.784H294.404ZM212.924 275.053C212.924 295.013 205.782 305.935 180.58 305.935C155.378 305.935 148.236 295.013 148.236 275.053V157.184C148.236 154.246 149.915 152.773 152.851 152.773H161.252C164.189 152.773 165.867 154.246 165.867 157.184V275.053C165.867 285.135 168.599 291.226 180.571 291.226C192.542 291.226 195.274 285.135 195.274 275.053V157.184C195.274 154.246 196.952 152.773 199.889 152.773H208.29C211.237 152.773 212.915 154.246 212.915 157.184V275.053H212.924ZM131.855 195.631C131.855 212.234 127.649 223.156 113.375 227.353V228.407C127.659 232.819 131.855 243.741 131.855 260.129V271.051C131.855 292.905 124.293 304.871 96.7787 304.871H73.8891C70.9523 304.871 69.2741 303.192 69.2741 300.255V157.184C69.2741 154.246 70.9523 152.773 73.8891 152.773H96.7787C124.293 152.773 131.855 164.749 131.855 186.388V195.631ZM298.112 62.7411C285.779 23.572 267.543 6.94 236.965 1.04463C206.397 -4.86051 180.112 14.9925 140.421 42.3611C100.74 69.7199 39.5937 147.521 39.5937 147.521C39.5937 147.521 25.6512 166.837 21.8948 174.89C18.1384 182.933 -3.31695 208.154 0.43944 268.25C4.19583 328.345 82.5044 371.799 125.942 392.189C169.389 412.579 205.86 414.189 243.941 403.453C282.023 392.726 301.302 359.15 313.127 281.661C323.753 212.039 310.444 101.91 298.112 62.7411Z" fill="black">
	</path>
	<path d="M355.013 212.22L377.034 235.087C386.564 244.533 391 253.13 391 275.159C391 295.093 383.801 306 358.397 306C332.993 306 326 295.093 326 275.159V255.226C326 252.292 327.485 250.615 330.445 250.615H339.13C342.09 250.615 343.575 252.292 343.575 255.226V275.159C343.575 285.228 346.329 291.311 358.397 291.311C370.464 291.311 373.425 285.228 373.425 275.159C373.425 261.727 371.733 256.064 361.996 245.78L339.976 222.913C330.445 213.682 326 204.87 326 182.841C326 162.907 332.983 152 358.397 152C383.801 152 391 162.907 391 182.841V202.774C391 205.708 389.525 207.18 386.555 207.18H377.87C374.91 207.18 373.425 205.708 373.425 202.774V182.841C373.425 172.772 370.464 166.689 358.397 166.689C346.329 166.689 343.575 172.772 343.575 182.841C343.585 196.487 345.277 202.151 355.013 212.22Z" fill="black">
	</path>
	<path d="M459.36 153C462.313 153 464 154.473 464 157.409V163.075C464 166.011 462.313 167.699 459.36 167.699H424.735V221.656H451.337C454.289 221.656 455.976 223.128 455.976 226.064V231.731C455.976 234.667 454.289 236.344 451.337 236.344H424.735V290.301H459.36C462.313 290.301 464 291.774 464 294.71V300.377C464 303.313 462.313 305 459.36 305H411.64C408.687 305 407 303.322 407 300.377V157.409C407 154.473 408.687 153 411.64 153H459.36Z" fill="black">
	</path>
	<path d="M539 207.385C539 210.319 537.314 211.996 534.353 211.996H525.912C522.961 211.996 521.275 210.319 521.275 207.385V182.841C521.275 172.772 518.529 166.68 506.5 166.68C494.471 166.68 491.726 172.762 491.726 182.841V275.159C491.726 285.228 494.471 291.311 506.5 291.311C518.529 291.311 521.275 285.228 521.275 275.159V250.401C521.275 247.467 522.961 245.995 525.912 245.995H534.353C537.304 245.995 539 247.457 539 250.401V275.159C539 295.093 531.824 306 506.5 306C481.176 306 474 295.093 474 275.159V182.841C474 162.907 481.176 152 506.5 152C531.824 152 539 162.907 539 182.841V207.385Z" fill="black">
	</path>
</svg>
